<svg width="62" height="62" viewBox="0 0 62 62" fill="none" xmlns="http://www.w3.org/2000/svg">
<circle cx="31" cy="31" r="30.5" stroke="white"/>
<path d="M42.8149 33.36L31.4468 43.9882C31.3882 44.043 31.3185 44.0866 31.2419 44.1163C31.1652 44.146 31.083 44.1613 31 44.1613C30.917 44.1613 30.8348 44.146 30.7581 44.1163C30.6815 44.0866 30.6118 44.043 30.5532 43.9882L19.1851 33.36C19.0666 33.2492 19 33.0989 19 32.9422C19 32.7856 19.0666 32.6353 19.1851 32.5245C19.3036 32.4137 19.4643 32.3515 19.6319 32.3515C19.7995 32.3515 19.9602 32.4137 20.0787 32.5245L30.3684 42.1445V17.5905C30.3684 17.4339 30.435 17.2837 30.5534 17.1729C30.6719 17.0622 30.8325 17 31 17C31.1675 17 31.3281 17.0622 31.4466 17.1729C31.565 17.2837 31.6316 17.4339 31.6316 17.5905V42.1445L41.9213 32.5245C42.0398 32.4137 42.2005 32.3515 42.3681 32.3515C42.5357 32.3515 42.6964 32.4137 42.8149 32.5245C42.9334 32.6353 43 32.7856 43 32.9422C43 33.0989 42.9334 33.2492 42.8149 33.36Z" fill="white"/>
</svg>
