<svg width="278" height="271" viewBox="0 0 278 271" fill="none" xmlns="http://www.w3.org/2000/svg">
<path d="M132.376 265.54L132.378 265.54C134.57 265.642 136.776 265.694 138.988 265.694C181.439 265.694 219.315 246.484 243.873 216.469C262.085 194.217 272.975 166.025 272.975 135.343C272.975 63.2243 212.858 5 138.988 5C65.0635 5 5 65.3481 5 135.343C5 205.303 61.5772 262.19 132.376 265.54Z" fill="#231154" stroke="#B398EF" stroke-width="10"/>
<path d="M240.408 213.303C216.736 242.183 180.203 260.694 139.218 260.694C137.076 260.694 134.948 260.645 132.828 260.546L128.296 174.161L127.086 163.361H120.237L104.929 178.621L104.12 179.434L97.8102 185.717C97.8102 185.717 102.692 195.273 87.5366 206.865C87.5366 206.865 70.4723 219.636 52.49 206.476C52.133 206.214 51.7686 205.939 51.4043 205.656C51.3461 205.606 51.2951 205.564 51.2441 205.522L51.244 205.522C40.9268 197.28 30.4419 179.208 43.3021 168.464C44.4824 167.482 45.8814 166.782 47.2731 166.097C47.7308 165.869 48.2392 165.653 48.7615 165.431C50.0762 164.872 51.4785 164.276 52.3807 163.375C52.9199 162.838 53.2477 162.153 53.5683 161.481C54.9673 158.548 56.3735 155.615 57.787 152.682C57.8507 152.536 57.9236 152.389 57.9948 152.247C58.0131 152.21 58.0314 152.174 58.0493 152.137C58.1368 151.939 58.2315 151.742 58.3262 151.551C62.0358 143.824 65.7549 136.104 69.4731 128.386C71.3637 124.462 73.2541 120.538 75.1428 116.614C76.9779 112.799 78.813 108.983 80.6481 105.167C82.4852 101.346 84.3224 97.5253 86.1595 93.7065C87.0923 91.7696 88.0232 89.8327 88.9541 87.8959C89.8848 85.9595 90.8155 84.0231 91.748 82.0867C93.453 78.5386 94.1452 76.2062 92.7244 72.4036C88.5057 61.0949 87.5293 48.6694 89.9192 36.873C96.6589 38.7177 102.131 43.7996 105.417 49.7932C108.004 54.5146 109.352 59.7803 109.993 65.0671C110.047 65.5196 110.065 65.9565 110.082 66.3611C110.148 67.9532 110.194 69.045 112.361 68.6223C112.72 68.5527 113.077 68.4803 113.435 68.4079C114.348 68.2231 115.259 68.0385 116.186 67.9013C124.412 66.6715 133.476 67.3571 140.478 72.1138C140.478 63.2718 141.425 54.2955 145.258 46.1391C147.13 42.1457 149.659 38.3149 153.324 35.7421C155.531 34.2013 156.377 34.5547 157.805 36.5337C159.087 38.3078 160.275 40.1525 161.317 42.0609C163.408 45.8705 164.974 49.9629 165.718 54.2248C166.971 61.3423 165.82 68.9898 161.732 75.0258L161.678 75.1062C160.524 76.8077 159.441 78.4063 160.617 80.3268C160.848 80.7074 161.083 81.0859 161.317 81.465C162.153 82.8179 162.994 84.178 163.728 85.6631C168.384 95.1059 173.04 104.549 177.696 113.999L194.768 148.625C195.943 151.009 197.119 153.394 198.295 155.779C201.936 163.164 205.577 170.552 209.223 177.935C210.236 179.998 218.685 189.272 227.127 198.537C232.049 203.939 236.968 209.339 240.408 213.303Z" fill="white"/>
<path d="M240.408 213.303C216.736 242.183 180.203 260.694 139.218 260.694C137.076 260.694 134.948 260.645 132.828 260.546L128.296 174.161L127.086 163.361H120.237L104.929 178.621L104.12 179.434L97.8102 185.717C97.8102 185.717 102.692 195.273 87.5366 206.865C87.5366 206.865 70.4723 219.636 52.49 206.476C52.133 206.214 51.7686 205.939 51.4043 205.656C51.3461 205.606 51.2951 205.564 51.2441 205.522L51.244 205.522C40.9268 197.28 30.4419 179.208 43.3021 168.464C44.4824 167.482 45.8814 166.782 47.2731 166.097C47.7308 165.869 48.2392 165.653 48.7615 165.431C50.0762 164.872 51.4785 164.276 52.3807 163.375C52.9199 162.838 53.2477 162.153 53.5683 161.481C54.9673 158.548 56.3735 155.615 57.787 152.682C57.8507 152.536 57.9236 152.389 57.9948 152.247C58.0131 152.21 58.0314 152.174 58.0493 152.137C58.1368 151.939 58.2315 151.742 58.3262 151.551C62.0358 143.824 65.7549 136.104 69.4731 128.386C71.3637 124.462 73.2541 120.538 75.1428 116.614C76.9779 112.799 78.813 108.983 80.6481 105.167C82.4852 101.346 84.3224 97.5253 86.1595 93.7065C87.0923 91.7696 88.0232 89.8327 88.9541 87.8959C89.8848 85.9595 90.8155 84.0231 91.748 82.0867C93.453 78.5386 94.1452 76.2062 92.7244 72.4036C88.5057 61.0949 87.5293 48.6694 89.9192 36.873C96.6589 38.7177 102.131 43.7996 105.417 49.7932C108.004 54.5146 109.352 59.7803 109.993 65.0671C110.047 65.5196 110.065 65.9565 110.082 66.3611C110.148 67.9532 110.194 69.045 112.361 68.6223C112.72 68.5527 113.077 68.4803 113.435 68.4079C114.348 68.2231 115.259 68.0385 116.186 67.9013C124.412 66.6715 133.476 67.3571 140.478 72.1138C140.478 63.2718 141.425 54.2955 145.258 46.1391C147.13 42.1457 149.659 38.3149 153.324 35.7421C155.531 34.2013 156.377 34.5547 157.805 36.5337C159.087 38.3078 160.275 40.1525 161.317 42.0609C163.408 45.8705 164.974 49.9629 165.718 54.2248C166.971 61.3423 165.82 68.9898 161.732 75.0258L161.678 75.1062C160.524 76.8077 159.441 78.4063 160.617 80.3268C160.848 80.7074 161.083 81.0859 161.317 81.465C162.153 82.8179 162.994 84.178 163.728 85.6631C168.384 95.1059 173.04 104.549 177.696 113.999L194.768 148.625C195.943 151.009 197.119 153.394 198.295 155.779C201.936 163.164 205.577 170.552 209.223 177.935C210.236 179.998 218.685 189.272 227.127 198.537C232.049 203.939 236.968 209.339 240.408 213.303Z" stroke="black"/>
<path d="M123.861 169.191C158.718 164.866 152.212 129.795 152.212 129.795C152.022 163.353 120.233 163.36 120.233 163.36L123.861 169.191Z" fill="#231154"/>
<path d="M123.861 169.191C158.718 164.866 152.212 129.795 152.212 129.795C152.022 163.353 120.233 163.36 120.233 163.36L123.861 169.191Z" stroke="black"/>
<path d="M237.75 200.947C237.76 200.946 237.77 200.945 237.78 200.944L237.765 200.958C237.76 200.954 237.755 200.951 237.75 200.947ZM237.75 200.947C233.423 197.767 230.252 193.128 228.92 188.024C227.962 184.337 227.946 180.511 227.93 176.696C227.927 175.983 227.924 175.27 227.914 174.559C227.856 170.043 227.506 165.392 225.415 161.363C225.226 160.996 225.022 160.635 224.796 160.282C223.339 157.971 221.189 156.006 218.617 154.967C218.246 154.811 217.823 154.635 217.386 154.465C215.309 153.645 212.723 152.903 211.914 155.221C211.841 155.433 211.768 155.644 211.694 155.856C210.994 157.879 210.292 159.908 209.626 161.943C208.016 166.897 206.61 171.902 205.896 177.04C205.699 178.461 205.56 179.924 205.56 181.366C205.56 183.345 205.83 185.302 206.588 187.133C207.848 190.179 210.355 192.59 213.08 194.526C220.103 199.518 229.089 201.857 237.75 200.947Z" fill="white"/>
<path d="M237.75 200.947C237.76 200.946 237.77 200.945 237.78 200.944L237.765 200.958C237.76 200.954 237.755 200.951 237.75 200.947ZM237.75 200.947C233.423 197.767 230.252 193.128 228.92 188.024C227.962 184.337 227.946 180.511 227.93 176.696C227.927 175.983 227.924 175.27 227.914 174.559C227.856 170.043 227.506 165.392 225.415 161.363C225.226 160.996 225.022 160.635 224.796 160.282C223.339 157.971 221.189 156.006 218.617 154.967C218.246 154.811 217.823 154.635 217.386 154.465C215.309 153.645 212.723 152.903 211.914 155.221C211.841 155.433 211.768 155.644 211.694 155.856C210.994 157.879 210.292 159.908 209.626 161.943C208.016 166.897 206.61 171.902 205.896 177.04C205.699 178.461 205.56 179.924 205.56 181.366C205.56 183.345 205.83 185.302 206.588 187.133C207.848 190.179 210.355 192.59 213.08 194.526C220.103 199.518 229.089 201.857 237.75 200.947Z" stroke="black"/>
<path d="M234.057 203.615C226.05 203.615 218.035 201.112 211.572 196.525C207.907 193.917 205.503 191.147 204.228 188.058C203.412 186.093 203.018 183.902 203.011 181.372C203.011 179.972 203.12 178.488 203.368 176.714C204.177 170.897 205.838 165.377 207.193 161.221V161.2C207.878 159.101 208.607 156.994 209.321 154.952L209.503 154.436C210.078 152.782 211.186 151.997 212.009 151.637C214.057 150.725 216.366 151.396 218.356 152.174C218.452 152.213 218.548 152.251 218.643 152.289C218.841 152.367 219.033 152.444 219.215 152.52L219.609 152.683C222.538 153.87 225.161 156.104 226.982 158.987C227.245 159.404 227.492 159.829 227.704 160.253C230.035 164.741 230.407 169.766 230.472 174.523C230.48 175.237 230.487 175.958 230.487 176.679C230.502 180.453 230.516 184.022 231.405 187.415C232.607 192.016 235.413 196.123 239.318 198.978C240.149 199.586 240.52 200.632 240.243 201.607C239.966 202.583 239.099 203.297 238.065 203.41C236.739 203.551 235.398 203.622 234.065 203.622L234.057 203.615ZM212.068 162.67V162.691C210.771 166.663 209.189 171.929 208.432 177.371C208.213 178.926 208.118 180.191 208.118 181.365C208.118 183.259 208.395 184.842 208.964 186.213C209.874 188.418 211.718 190.489 214.596 192.532C219.529 196.038 225.518 198.137 231.624 198.582C229.197 195.677 227.42 192.278 226.465 188.616C225.43 184.637 225.409 180.594 225.394 176.686V176.685C225.394 175.978 225.394 175.279 225.379 174.572C225.328 170.402 225.022 166.055 223.157 162.458C223.004 162.154 222.829 161.857 222.64 161.56C221.379 159.567 219.609 158.026 217.656 157.242L217.226 157.065C217.125 157.024 217.022 156.983 216.917 156.94C216.767 156.879 216.613 156.817 216.454 156.754C215.222 156.273 214.603 156.153 214.304 156.139L214.166 156.528C213.466 158.542 212.745 160.62 212.075 162.67H212.068Z" fill="#231154"/>
<path d="M234.057 203.615C226.05 203.615 218.035 201.112 211.572 196.525C207.907 193.917 205.503 191.147 204.228 188.058C203.412 186.093 203.018 183.902 203.011 181.372C203.011 179.972 203.12 178.488 203.368 176.714C204.177 170.897 205.838 165.377 207.193 161.221V161.2C207.878 159.101 208.607 156.994 209.321 154.952L209.503 154.436C210.078 152.782 211.186 151.997 212.009 151.637C214.057 150.725 216.366 151.396 218.356 152.174C218.452 152.213 218.548 152.251 218.643 152.289C218.841 152.367 219.033 152.444 219.215 152.52L219.609 152.683C222.538 153.87 225.161 156.104 226.982 158.987C227.245 159.404 227.492 159.829 227.704 160.253C230.035 164.741 230.407 169.766 230.472 174.523C230.48 175.237 230.487 175.958 230.487 176.679C230.502 180.453 230.516 184.022 231.405 187.415C232.607 192.016 235.413 196.123 239.318 198.978C240.149 199.586 240.52 200.632 240.243 201.607C239.966 202.583 239.099 203.297 238.065 203.41C236.739 203.551 235.398 203.622 234.065 203.622L234.057 203.615ZM212.068 162.67V162.691C210.771 166.663 209.189 171.929 208.432 177.371C208.213 178.926 208.118 180.191 208.118 181.365C208.118 183.259 208.395 184.842 208.964 186.213C209.874 188.418 211.718 190.489 214.596 192.532C219.529 196.038 225.518 198.137 231.624 198.582C229.197 195.677 227.42 192.278 226.465 188.616C225.43 184.637 225.409 180.594 225.394 176.686V176.685C225.394 175.978 225.394 175.279 225.379 174.572C225.328 170.402 225.022 166.055 223.157 162.458C223.004 162.154 222.829 161.857 222.64 161.56C221.379 159.567 219.609 158.026 217.656 157.242L217.226 157.065C217.125 157.024 217.022 156.983 216.917 156.94C216.767 156.879 216.613 156.817 216.454 156.754C215.222 156.273 214.603 156.153 214.304 156.139L214.166 156.528C213.466 158.542 212.745 160.62 212.075 162.67H212.068Z" stroke="black"/>
<path d="M222.726 146.081C220.693 153.729 217.545 160.606 213.581 167.49L213.566 167.516C212.048 170.151 210.497 172.843 209.946 175.816C209.64 177.463 209.654 179.145 209.814 180.813C209.844 181.13 209.959 181.606 210.087 182.139C210.371 183.32 210.722 184.777 210.361 185.386C209.535 186.781 207.438 184.923 206.358 183.965C206.18 183.807 206.029 183.674 205.916 183.584C204.051 182.078 202.361 180.368 200.903 178.488C196.437 172.734 192.801 163.652 196.692 150.604C204.27 125.174 210.878 116.714 210.878 116.714C210.878 116.714 214.346 117.866 217.727 121.124C222.048 125.301 226.216 132.949 222.726 146.088V146.081Z" fill="white"/>
<path d="M222.726 146.081C220.693 153.729 217.545 160.606 213.581 167.49L213.566 167.516C212.048 170.151 210.497 172.843 209.946 175.816C209.64 177.463 209.654 179.145 209.814 180.813C209.844 181.13 209.959 181.606 210.087 182.139C210.371 183.32 210.722 184.777 210.361 185.386C209.535 186.781 207.438 184.923 206.358 183.965C206.18 183.807 206.029 183.674 205.916 183.584C204.051 182.078 202.361 180.368 200.903 178.488C196.437 172.734 192.801 163.652 196.692 150.604C204.27 125.174 210.878 116.714 210.878 116.714C210.878 116.714 214.346 117.866 217.727 121.124C222.048 125.301 226.216 132.949 222.726 146.088V146.081Z" stroke="black"/>
<path d="M209.5 188.36C207.529 188.36 205.805 186.832 204.625 185.786L204.618 185.78C204.527 185.701 204.445 185.628 204.377 185.567C204.342 185.536 204.31 185.508 204.283 185.484C202.25 183.844 200.429 181.992 198.862 179.978C194.381 174.21 189.944 164.308 194.235 149.918C201.857 124.339 208.553 115.581 208.837 115.221C209.5 114.373 210.651 114.026 211.693 114.373C211.861 114.429 215.766 115.751 219.519 119.37C224.211 123.907 229.005 132.332 225.194 146.702C223.285 153.89 220.305 160.88 215.81 168.697L215.773 168.761C214.309 171.305 212.932 173.701 212.458 176.253C212.225 177.497 212.196 178.875 212.356 180.578C212.371 180.734 212.487 181.214 212.575 181.561L212.583 181.597C213.003 183.352 213.436 185.161 212.575 186.614C212.021 187.554 211.125 188.155 210.068 188.318C209.879 188.346 209.697 188.36 209.507 188.36H209.5ZM211.808 119.875C209.665 123.383 204.66 132.769 199.139 151.289C196.166 161.269 197.441 169.92 202.935 177.002C204.21 178.642 205.689 180.161 207.336 181.511C207.307 181.349 207.285 181.186 207.27 181.038C207.066 178.868 207.117 177.073 207.431 175.376C208.057 172.019 209.711 169.135 211.314 166.351L211.351 166.287C215.628 158.851 218.455 152.236 220.247 145.465C222.79 135.881 221.296 128.07 215.912 122.876C214.435 121.45 212.929 120.476 211.808 119.875Z" fill="#231154"/>
<path d="M209.5 188.36C207.529 188.36 205.805 186.832 204.625 185.786L204.618 185.78C204.527 185.701 204.445 185.628 204.377 185.567C204.342 185.536 204.31 185.508 204.283 185.484C202.25 183.844 200.429 181.992 198.862 179.978C194.381 174.21 189.944 164.308 194.235 149.918C201.857 124.339 208.553 115.581 208.837 115.221C209.5 114.373 210.651 114.026 211.693 114.373C211.861 114.429 215.766 115.751 219.519 119.37C224.211 123.907 229.005 132.332 225.194 146.702C223.285 153.89 220.305 160.88 215.81 168.697L215.773 168.761C214.309 171.305 212.932 173.701 212.458 176.253C212.225 177.497 212.196 178.875 212.356 180.578C212.371 180.734 212.487 181.214 212.575 181.561L212.583 181.597C213.003 183.352 213.436 185.161 212.575 186.614C212.021 187.554 211.125 188.155 210.068 188.318C209.879 188.346 209.697 188.36 209.507 188.36H209.5ZM211.808 119.875C209.665 123.383 204.66 132.769 199.139 151.289C196.166 161.269 197.441 169.92 202.935 177.002C204.21 178.642 205.689 180.161 207.336 181.511C207.307 181.349 207.285 181.186 207.27 181.038C207.066 178.868 207.117 177.073 207.431 175.376C208.057 172.019 209.711 169.135 211.314 166.351L211.351 166.287C215.628 158.851 218.455 152.236 220.247 145.465C222.79 135.881 221.296 128.07 215.912 122.876C214.435 121.45 212.929 120.476 211.808 119.875Z" stroke="black"/>
<path d="M214.869 185.647C215.125 185.711 215.387 185.767 215.649 185.817C215.003 185.691 213.939 186.094 212.989 186.453C212.493 186.64 212.028 186.816 211.671 186.898C207.117 187.93 202.002 188.178 197.361 187.683C193.157 187.238 188.938 185.852 185.805 183.096C182.781 180.438 180.981 176.727 179.663 172.981C177.55 166.974 176.486 160.584 176.916 154.251C177.385 147.304 179.743 140.898 182.11 134.47C183.011 132.023 183.912 129.573 184.712 127.089C189.273 112.904 191.882 96.0396 179.218 80.5396C179.218 80.5396 182.118 79.6349 186.293 79.7762C192.727 79.9883 202.192 82.6741 208.676 94.9865C215.059 107.108 210.214 122.064 205.587 133.931C204.709 136.18 203.723 138.427 202.732 140.684C198.674 149.929 194.554 159.316 197.623 169.497C199.998 177.371 206.673 183.725 214.891 185.654L214.869 185.647Z" fill="white"/>
<path d="M214.869 185.647C215.125 185.711 215.387 185.767 215.649 185.817C215.003 185.691 213.939 186.094 212.989 186.453C212.493 186.64 212.028 186.816 211.671 186.898C207.117 187.93 202.002 188.178 197.361 187.683C193.157 187.238 188.938 185.852 185.805 183.096C182.781 180.438 180.981 176.727 179.663 172.981C177.55 166.974 176.486 160.584 176.916 154.251C177.385 147.304 179.743 140.898 182.11 134.47C183.011 132.023 183.912 129.573 184.712 127.089C189.273 112.904 191.882 96.0396 179.218 80.5396C179.218 80.5396 182.118 79.6349 186.293 79.7762C192.727 79.9883 202.192 82.6741 208.676 94.9865C215.059 107.108 210.214 122.064 205.587 133.931C204.709 136.18 203.723 138.427 202.732 140.684C198.674 149.929 194.554 159.316 197.623 169.497C199.998 177.371 206.673 183.725 214.891 185.654L214.869 185.647Z" stroke="black"/>
<path d="M202.075 190.404C200.392 190.404 198.716 190.319 197.069 190.143C191.816 189.584 187.32 187.782 184.078 184.926C180.289 181.597 178.358 176.968 177.229 173.78C174.883 167.122 173.914 160.499 174.351 154.089C174.839 146.802 177.297 140.121 179.678 133.653L179.684 133.634C179.722 133.532 179.759 133.43 179.797 133.328C180.636 131.041 181.503 128.682 182.249 126.354C186.344 113.632 189.47 97.0999 177.185 82.0804C176.668 81.4443 176.5 80.6032 176.741 79.8258C176.981 79.0483 177.601 78.4405 178.402 78.186C178.541 78.1436 181.776 77.1541 186.344 77.3025C193.696 77.5428 203.933 80.6103 210.913 93.8627C217.471 106.316 213.361 120.905 207.933 134.807C207.037 137.105 206.024 139.423 205.04 141.663C201.018 150.823 197.222 159.482 200.035 168.804C202.17 175.879 208.225 181.555 215.46 183.251C215.686 183.308 215.919 183.357 216.152 183.4C217.529 183.675 218.418 184.976 218.141 186.319C217.879 187.584 216.662 188.432 215.35 188.284C215.03 188.34 214.338 188.602 213.915 188.764L213.837 188.794C213.283 189.002 212.755 189.201 212.247 189.316C209.048 190.044 205.558 190.411 202.075 190.411V190.404ZM183.663 82.2925C194.519 98.1671 191.306 114.84 187.124 127.824C186.327 130.296 185.425 132.754 184.555 135.126L184.493 135.295C182.125 141.727 179.888 147.805 179.444 154.407C179.058 160.16 179.939 166.14 182.06 172.176C183.553 176.424 185.288 179.307 187.503 181.258C190.592 183.972 194.709 184.912 197.623 185.223C200.734 185.555 203.984 185.534 207.088 185.167C201.434 181.845 197.033 176.459 195.146 170.183C191.823 159.157 196.159 149.276 200.355 139.713L200.414 139.579C201.358 137.429 202.333 135.208 203.175 133.048C208.181 120.205 212.035 106.847 206.381 96.1033C200.53 84.9995 192.166 82.4339 186.184 82.243C185.266 82.2147 184.42 82.243 183.663 82.2925Z" fill="#231154"/>
<path d="M202.075 190.404C200.392 190.404 198.716 190.319 197.069 190.143C191.816 189.584 187.32 187.782 184.078 184.926C180.289 181.597 178.358 176.968 177.229 173.78C174.883 167.122 173.914 160.499 174.351 154.089C174.839 146.802 177.297 140.121 179.678 133.653L179.684 133.634C179.722 133.532 179.759 133.43 179.797 133.328C180.636 131.041 181.503 128.682 182.249 126.354C186.344 113.632 189.47 97.0999 177.185 82.0804C176.668 81.4443 176.5 80.6032 176.741 79.8258C176.981 79.0483 177.601 78.4405 178.402 78.186C178.541 78.1436 181.776 77.1541 186.344 77.3025C193.696 77.5428 203.933 80.6103 210.913 93.8627C217.471 106.316 213.361 120.905 207.933 134.807C207.037 137.105 206.024 139.423 205.04 141.663C201.018 150.823 197.222 159.482 200.035 168.804C202.17 175.879 208.225 181.555 215.46 183.251C215.686 183.308 215.919 183.357 216.152 183.4C217.529 183.675 218.418 184.976 218.141 186.319C217.879 187.584 216.662 188.432 215.35 188.284C215.03 188.34 214.338 188.602 213.915 188.764L213.837 188.794C213.283 189.002 212.755 189.201 212.247 189.316C209.048 190.044 205.558 190.411 202.075 190.411V190.404ZM183.663 82.2925C194.519 98.1671 191.306 114.84 187.124 127.824C186.327 130.296 185.425 132.754 184.555 135.126L184.493 135.295C182.125 141.727 179.888 147.805 179.444 154.407C179.058 160.16 179.939 166.14 182.06 172.176C183.553 176.424 185.288 179.307 187.503 181.258C190.592 183.972 194.709 184.912 197.623 185.223C200.734 185.555 203.984 185.534 207.088 185.167C201.434 181.845 197.033 176.459 195.146 170.183C191.823 159.157 196.159 149.276 200.355 139.713L200.414 139.579C201.358 137.429 202.333 135.208 203.175 133.048C208.181 120.205 212.035 106.847 206.381 96.1033C200.53 84.9995 192.166 82.4339 186.184 82.243C185.266 82.2147 184.42 82.243 183.663 82.2925Z" stroke="black"/>
<path d="M158.23 74.0345C158.23 74.0345 177.961 68.0055 186.369 93.5279C194.77 119.05 179.972 140.495 179.972 140.495C179.972 140.495 179.608 111.608 167.272 95.0334C154.936 78.459 158.23 74.0345 158.23 74.0345Z" fill="white"/>
<path d="M158.23 74.0345C158.23 74.0345 177.961 68.0055 186.369 93.5279C194.77 119.05 179.972 140.495 179.972 140.495C179.972 140.495 179.608 111.608 167.272 95.0334C154.936 78.459 158.23 74.0345 158.23 74.0345Z" stroke="black"/>
<path d="M179.969 142.969C179.729 142.969 179.481 142.934 179.241 142.87C178.169 142.559 177.434 141.612 177.419 140.531C177.419 140.248 176.909 112.216 165.2 96.4903C152.755 79.7745 155.131 73.9717 156.151 72.5935C156.471 72.1623 156.93 71.8372 157.455 71.6817C157.673 71.6111 179.714 65.2358 188.785 92.7867C197.463 119.143 182.716 140.969 182.082 141.881C181.601 142.58 180.8 142.976 179.962 142.976L179.969 142.969ZM160.384 76.0992C160.428 77.9793 161.499 83.0612 169.339 93.5924C177.703 104.83 180.763 121.157 181.878 131.286C185.288 123.101 188.902 109.368 183.933 94.2851C177.608 75.0743 164.683 75.4065 160.384 76.0992Z" fill="#231154"/>
<path d="M179.969 142.969C179.729 142.969 179.481 142.934 179.241 142.87C178.169 142.559 177.434 141.612 177.419 140.531C177.419 140.248 176.909 112.216 165.2 96.4903C152.755 79.7745 155.131 73.9717 156.151 72.5935C156.471 72.1623 156.93 71.8372 157.455 71.6817C157.673 71.6111 179.714 65.2358 188.785 92.7867C197.463 119.143 182.716 140.969 182.082 141.881C181.601 142.58 180.8 142.976 179.962 142.976L179.969 142.969ZM160.384 76.0992C160.428 77.9793 161.499 83.0612 169.339 93.5924C177.703 104.83 180.763 121.157 181.878 131.286C185.288 123.101 188.902 109.368 183.933 94.2851C177.608 75.0743 164.683 75.4065 160.384 76.0992Z" stroke="black"/>
<path d="M98.6373 102.427C98.6352 102.427 98.6332 102.428 98.6311 102.428H98.6384L98.6373 102.427ZM98.6373 102.427C114.995 99.2293 109.575 82.3552 109.575 82.3552L74.164 56.854C74.164 56.854 77.1368 67.9012 71.7742 73.2587L98.6373 102.427Z" fill="white"/>
<path d="M98.6373 102.427C98.6352 102.427 98.6332 102.428 98.6311 102.428H98.6384L98.6373 102.427ZM98.6373 102.427C114.995 99.2293 109.575 82.3552 109.575 82.3552L74.164 56.854C74.164 56.854 77.1368 67.9012 71.7742 73.2587L98.6373 102.427Z" stroke="black"/>
<path d="M110.051 82.2029L110 82.0462L109.867 81.95L62.0329 47.5078L62.0329 47.5078L22.4688 19.0239L21.8089 19.7684L59.5514 60.7414L80.9 83.9173L98.263 102.768L98.4523 102.973L98.7266 102.92C102.909 102.103 105.743 100.402 107.62 98.2754C109.493 96.1531 110.379 93.6454 110.734 91.2682C111.089 88.8929 110.917 86.6296 110.66 84.9665C110.531 84.1333 110.38 83.4466 110.261 82.9666C110.201 82.7265 110.149 82.5379 110.112 82.4081C110.094 82.3433 110.079 82.2931 110.068 82.2586L110.056 82.2186L110.052 82.2077L110.051 82.2045L110.051 82.2035C110.051 82.2031 110.051 82.2029 109.575 82.3558L110.051 82.2029Z" fill="white" stroke="black"/>
<path d="M140.596 72.2389C140.602 72.2455 140.604 72.2489 140.604 72.2489L140.611 72.2418C140.606 72.2409 140.601 72.2399 140.596 72.2389ZM140.596 72.2389C140.213 71.767 126.188 54.7142 108.669 63.3715C97.2543 69.0123 91.8237 79.2581 87.6754 87.0845C85.3679 91.4379 83.4573 95.0428 81.1342 96.6899C74.6349 101.305 69.2868 102.04 69.2868 102.04C69.2868 102.04 77.0758 113.851 90.7374 111.526C104.399 109.2 112.96 99.2414 114.534 89.523C116.107 79.8155 127.764 69.8325 140.596 72.2389Z" fill="white"/>
<path d="M140.596 72.2389C140.602 72.2455 140.604 72.2489 140.604 72.2489L140.611 72.2418C140.606 72.2409 140.601 72.2399 140.596 72.2389ZM140.596 72.2389C140.213 71.767 126.188 54.7142 108.669 63.3715C97.2543 69.0123 91.8237 79.2581 87.6754 87.0845C85.3679 91.4379 83.4573 95.0428 81.1342 96.6899C74.6349 101.305 69.2868 102.04 69.2868 102.04C69.2868 102.04 77.0758 113.851 90.7374 111.526C104.399 109.2 112.96 99.2414 114.534 89.523C116.107 79.8155 127.764 69.8325 140.596 72.2389Z" stroke="black"/>
<path d="M87.1393 114.31C74.505 114.31 67.4593 103.863 67.1387 103.376C66.6724 102.669 66.6068 101.778 66.9711 101.008C67.3354 100.244 68.0713 99.7073 68.9311 99.5942C68.9675 99.5942 73.7983 98.8379 79.6272 94.6961C81.4634 93.3956 83.2922 89.9464 85.4052 85.953C89.6093 78.0228 95.3654 67.1664 107.512 61.1657C126.922 51.5674 142.456 70.5307 142.616 70.7286C143.272 71.5415 143.331 72.6653 142.777 73.5417C142.223 74.4181 141.159 74.8705 140.117 74.6726C135.112 73.7325 129.873 74.8987 125.37 77.9592C120.94 80.9772 117.749 85.5502 117.042 89.904C115.417 99.9617 106.783 111.299 91.1686 113.956C89.7696 114.197 88.4217 114.303 87.132 114.303L87.1393 114.31ZM73.7181 103.397C76.6545 106.337 82.345 110.444 90.2942 109.094C103.358 106.867 110.71 97.1911 112.007 89.1477C112.932 83.4298 116.831 77.733 122.441 73.9163C126.077 71.4425 130.121 69.9582 134.245 69.5342C129.173 65.4065 120.16 60.466 109.821 65.5761C99.1424 70.8545 94.042 80.4775 89.9404 88.2159L89.9372 88.2218L89.9248 88.2452C87.417 92.9697 85.437 96.6996 82.6364 98.6895C79.2046 101.121 76.0497 102.563 73.7108 103.397H73.7181Z" fill="#231154"/>
<path d="M87.1393 114.31C74.505 114.31 67.4593 103.863 67.1387 103.376C66.6724 102.669 66.6068 101.778 66.9711 101.008C67.3354 100.244 68.0713 99.7073 68.9311 99.5942C68.9675 99.5942 73.7983 98.8379 79.6272 94.6961C81.4634 93.3956 83.2922 89.9464 85.4052 85.953C89.6093 78.0228 95.3654 67.1664 107.512 61.1657C126.922 51.5674 142.456 70.5307 142.616 70.7286C143.272 71.5415 143.331 72.6653 142.777 73.5417C142.223 74.4181 141.159 74.8705 140.117 74.6726C135.112 73.7325 129.873 74.8987 125.37 77.9592C120.94 80.9772 117.749 85.5502 117.042 89.904C115.417 99.9617 106.783 111.299 91.1686 113.956C89.7696 114.197 88.4217 114.303 87.132 114.303L87.1393 114.31ZM73.7181 103.397C76.6545 106.337 82.345 110.444 90.2942 109.094C103.358 106.867 110.71 97.1911 112.007 89.1477C112.932 83.4298 116.831 77.733 122.441 73.9163C126.077 71.4425 130.121 69.9582 134.245 69.5342C129.173 65.4065 120.16 60.466 109.821 65.5761C99.1424 70.8545 94.042 80.4775 89.9404 88.2159L89.9372 88.2218L89.9248 88.2452C87.417 92.9697 85.437 96.6996 82.6364 98.6895C79.2046 101.121 76.0497 102.563 73.7108 103.397H73.7181Z" stroke="black"/>
<path d="M46.7718 89.7217L48.0469 93.0789C48.0979 93.2062 48.2218 93.291 48.3602 93.291C48.4986 93.291 48.6225 93.2062 48.6735 93.0789L49.9486 89.7217C50.9832 87.0005 53.191 84.8589 55.9961 83.8553L59.4571 82.6184C59.5882 82.5689 59.6757 82.4487 59.6757 82.3144C59.6757 82.1801 59.5882 82.06 59.4571 82.0105L55.9961 80.7736C53.191 79.77 50.9832 77.6284 49.9486 74.9072L48.6735 71.5499C48.6225 71.4227 48.4986 71.3379 48.3602 71.3379C48.2218 71.3379 48.0979 71.4227 48.0469 71.5499L46.7718 74.9072C45.7372 77.6284 43.5294 79.77 40.7243 80.7736L37.2633 82.0105C37.1322 82.06 37.0447 82.1801 37.0447 82.3144C37.0447 82.4487 37.1322 82.5689 37.2633 82.6184L40.7243 83.8553C43.5294 84.8589 45.7372 87.0005 46.7718 89.7217Z" fill="white"/>
<path d="M46.7718 89.7217L48.0469 93.0789C48.0979 93.2062 48.2218 93.291 48.3602 93.291C48.4986 93.291 48.6225 93.2062 48.6735 93.0789L49.9486 89.7217C50.9832 87.0005 53.191 84.8589 55.9961 83.8553L59.4571 82.6184C59.5882 82.5689 59.6757 82.4487 59.6757 82.3144C59.6757 82.1801 59.5882 82.06 59.4571 82.0105L55.9961 80.7736C53.191 79.77 50.9832 77.6284 49.9486 74.9072L48.6735 71.5499C48.6225 71.4227 48.4986 71.3379 48.3602 71.3379C48.2218 71.3379 48.0979 71.4227 48.0469 71.5499L46.7718 74.9072C45.7372 77.6284 43.5294 79.77 40.7243 80.7736L37.2633 82.0105C37.1322 82.06 37.0447 82.1801 37.0447 82.3144C37.0447 82.4487 37.1322 82.5689 37.2633 82.6184L40.7243 83.8553C43.5294 84.8589 45.7372 87.0005 46.7718 89.7217Z" stroke="black"/>
<path d="M63.3426 91.1981L61.7032 90.6115C60.3771 90.1379 59.3279 89.1201 58.8397 87.8338L58.235 86.2435C58.2131 86.1869 58.1548 86.1445 58.0893 86.1445C58.0237 86.1445 57.9654 86.1869 57.9435 86.2435L57.3388 87.8338C56.8506 89.1201 55.8014 90.1379 54.468 90.6186L52.8286 91.2052C52.7703 91.2264 52.7266 91.2829 52.7266 91.3466C52.7266 91.4102 52.7703 91.4667 52.8286 91.4879L54.468 92.0746C55.7941 92.5481 56.8433 93.5659 57.3388 94.8593L57.9435 96.4496C57.9654 96.5062 58.0237 96.5486 58.0893 96.5486C58.1548 96.5486 58.2131 96.5062 58.235 96.4496L58.8397 94.8593C59.3279 93.573 60.3771 92.5552 61.7105 92.0816L63.3499 91.495C63.4082 91.4738 63.4519 91.4172 63.4519 91.3536C63.4519 91.29 63.4082 91.2335 63.3499 91.2123L63.3426 91.1981Z" fill="white"/>
<path d="M63.3426 91.1981L61.7032 90.6115C60.3771 90.1379 59.3279 89.1201 58.8397 87.8338L58.235 86.2435C58.2131 86.1869 58.1548 86.1445 58.0893 86.1445C58.0237 86.1445 57.9654 86.1869 57.9435 86.2435L57.3388 87.8338C56.8506 89.1201 55.8014 90.1379 54.468 90.6186L52.8286 91.2052C52.7703 91.2264 52.7266 91.2829 52.7266 91.3466C52.7266 91.4102 52.7703 91.4667 52.8286 91.4879L54.468 92.0746C55.7941 92.5481 56.8433 93.5659 57.3388 94.8593L57.9435 96.4496C57.9654 96.5062 58.0237 96.5486 58.0893 96.5486C58.1548 96.5486 58.2131 96.5062 58.235 96.4496L58.8397 94.8593C59.3279 93.573 60.3771 92.5552 61.7105 92.0816L63.3499 91.495C63.4082 91.4738 63.4519 91.4172 63.4519 91.3536C63.4519 91.29 63.4082 91.2335 63.3499 91.2123L63.3426 91.1981Z" stroke="black"/>
<path d="M149.531 87.7765C149.313 87.9179 149.065 88.0098 148.803 87.9956C148.315 87.9603 147.958 87.5645 147.659 87.1899C138.238 75.4147 139.112 59.2149 145.254 46.1392C147.127 42.1458 149.655 38.3149 153.32 35.7422C155.528 34.1943 156.366 34.5548 157.801 36.5338C159.084 38.3079 160.264 40.1526 161.313 42.0609C163.397 45.8706 164.964 49.9629 165.714 54.2249C165.714 55.4112 165.811 56.573 165.908 57.7322C166.059 59.5565 166.211 61.3746 165.984 63.2719C165.627 66.2616 164.818 69.209 163.506 71.9301C161.328 76.441 157.428 80.178 153.661 83.7885C152.452 84.947 151.257 86.0926 150.136 87.2464C149.954 87.4373 149.75 87.6281 149.531 87.7765Z" fill="white"/>
<path d="M149.531 87.7765C149.313 87.9179 149.065 88.0098 148.803 87.9956C148.315 87.9603 147.958 87.5645 147.659 87.1899C138.238 75.4147 139.112 59.2149 145.254 46.1392C147.127 42.1458 149.655 38.3149 153.32 35.7422C155.528 34.1943 156.366 34.5548 157.801 36.5338C159.084 38.3079 160.264 40.1526 161.313 42.0609C163.397 45.8706 164.964 49.9629 165.714 54.2249C165.714 55.4112 165.811 56.573 165.908 57.7322C166.059 59.5565 166.211 61.3746 165.984 63.2719C165.627 66.2616 164.818 69.209 163.506 71.9301C161.328 76.441 157.428 80.178 153.661 83.7885C152.452 84.947 151.257 86.0926 150.136 87.2464C149.954 87.4373 149.75 87.6281 149.531 87.7765Z" stroke="black"/>
</svg>
