<svg width="242" height="242" viewBox="0 0 242 242" fill="none" xmlns="http://www.w3.org/2000/svg">
<rect width="242" height="242" fill="#D9D9D9"/>
<path opacity="0.2" d="M139.01 122.202L113.121 138.036C112.905 138.167 112.658 138.239 112.405 138.245C112.152 138.25 111.903 138.189 111.681 138.067C111.46 137.945 111.275 137.767 111.144 137.55C111.013 137.334 110.942 137.087 110.938 136.834V105.166C110.942 104.913 111.013 104.666 111.144 104.45C111.275 104.233 111.46 104.055 111.681 103.933C111.903 103.811 112.152 103.75 112.405 103.755C112.658 103.761 112.905 103.833 113.121 103.964L139.01 119.798C139.217 119.923 139.388 120.099 139.507 120.31C139.625 120.521 139.688 120.758 139.688 121C139.688 121.242 139.625 121.479 139.507 121.69C139.388 121.901 139.217 122.077 139.01 122.202Z" fill="white"/>
<path d="M139.759 118.572L113.87 102.735C113.434 102.467 112.934 102.321 112.422 102.312C111.91 102.303 111.405 102.43 110.959 102.681C110.517 102.928 110.149 103.288 109.893 103.725C109.636 104.161 109.501 104.658 109.5 105.164V136.836C109.503 137.595 109.808 138.322 110.347 138.857C110.886 139.392 111.616 139.69 112.375 139.687C112.905 139.687 113.425 139.541 113.877 139.265L139.759 123.427C140.175 123.174 140.519 122.818 140.758 122.393C140.996 121.968 141.122 121.489 141.122 121.002C141.122 120.514 140.996 120.035 140.758 119.611C140.519 119.186 140.175 118.83 139.759 118.576V118.572ZM112.375 136.802V105.187L138.219 121L112.375 136.802Z" fill="white"/>
</svg>
